<svg xmlns="http://www.w3.org/2000/svg" viewBox="0 0 220.4 200"><path fill="none" d="M-31.5 -29H252V229H-31.5z"/><path d="M110.2,27.8C124.3,13,136.8,0,158.4,0c33.5,0,59.5,26.5,61.8,59.2c1.4,20.3-4.9,36.9-19.8,52.1 c-24.9,25.3-69.5,70.5-84.6,85.8c-0.7,0.7-3.1,2.9-5.5,2.9c-2.5,0-4.9-2.2-5.5-2.9c-15.1-15.3-59.8-60.6-84.6-85.8 C5.1,96.1-1.2,79.5,0.2,59.2C2.5,26.5,28.5,0,62,0C83.6,0,96,13,110.2,27.8z" fill="#fff"/><path d="M110.2,27.8C124.3,13,136.8,0,158.4,0c33.5,0,59.5,26.5,61.8,59.2c1.4,20.3-4.9,36.9-19.8,52.1 c-24.9,25.3-69.5,70.5-84.6,85.8c-0.7,0.7-3.1,2.9-5.5,2.9c-2.5,0-4.9-2.2-5.5-2.9c-15.1-15.3-59.8-60.6-84.6-85.8 C5.1,96.1-1.2,79.5,0.2,59.2C2.5,26.5,28.5,0,62,0C83.6,0,96,13,110.2,27.8z" fill="#f0d722"/><path d="M73.9,110.3h-9.1c-2.3,0-4-0.8-4-3.4V63.6c0-2.1,1.7-3.8,4-3.8h9.9c11.9,0,13.7,6.1,13.7,12.7 c0,5.3-1.7,10-8.3,11.4c7.2,0.4,9.7,6.1,9.7,11.2C89.7,103.1,86.8,110.3,73.9,110.3z M73.2,66.7h-2.8v14.2h2.3 c6.4,0,6.6-4,6.6-7.2C79.3,68.6,78.5,66.7,73.2,66.7z M73,87.5h-2.7v15.9h3.4c5.5,0,6.1-3.8,6.1-8C79.8,90.9,79.3,87.5,73,87.5z M117.2,104.6c-0.9,4.2-3.2,6.3-7,6.3c-4.4,0-6.3-2.1-7.2-5.9l-9.3-38.5c-0.9-3.8,0.8-7,4.4-7c2.3,0,4.3,1.1,4.9,4.4l6.1,28.4 c0.6,2.7,1,5.9,1.1,8c0.2-2.1,0.7-5.3,1.1-8l5.5-28.4c0.6-2.8,2.3-4.4,4.7-4.4c3,0,5.2,2.5,4.4,6.4L117.2,104.6z M148.1,110.8 c-15,0-18.4-8.3-18.4-25.6c0-18.2,7.6-26,19.3-26c2.5,0,8.2,0.6,11,2.8c0.6,0.6,1.3,1.5,1.3,3c0,2.3-1.9,4-4,4 c-2.1,0-4.2-1.5-8.5-1.5c-5.7,0-9.5,3.4-9.5,18.4c0,14,3.2,17.2,9.9,17.2c1.7,0,2.7-0.2,3.2-0.4V88.3h-2.8c-2.5,0-4-1.3-4-3.6 c0-2.5,1.3-3.8,4-3.8h8.3c2.8,0,3.8,1.3,3.8,4.4v15C161.7,107.6,157.4,110.8,148.1,110.8z" fill="#252424"/></svg>